<svg xmlns="http://www.w3.org/2000/svg" viewBox="0 0 400 225" id="classic">
  <defs><linearGradient id="gc" x1="0%" y1="0%" x2="100%" y2="100%"><stop offset="0%" style="stop-color:#1a0005"/><stop offset="100%" style="stop-color:#5a0010"/></linearGradient></defs>
  <rect width="400" height="225" fill="url(#gc)"/>
  <ellipse cx="200" cy="112" rx="120" ry="80" fill="none" stroke="rgba(232,0,29,0.3)" stroke-width="2"/>
  <!-- Cards -->
  <rect x="80" y="60" width="60" height="90" rx="8" fill="#E8001D" transform="rotate(-15,110,105)"/>
  <rect x="130" y="55" width="60" height="90" rx="8" fill="#0057A8" transform="rotate(-5,160,100)"/>
  <rect x="180" y="55" width="60" height="90" rx="8" fill="#FFD700" transform="rotate(5,210,100)"/>
  <rect x="230" y="60" width="60" height="90" rx="8" fill="#00963A" transform="rotate(15,260,105)"/>
  <!-- Numbers on cards -->
  <text x="96" y="115" font-family="Arial Black" font-size="28" fill="white" transform="rotate(-15,110,105)" text-anchor="middle">7</text>
  <text x="163" y="110" font-family="Arial Black" font-size="20" fill="white" transform="rotate(-5,160,100)" text-anchor="middle">+2</text>
  <text x="213" y="110" font-family="Arial Black" font-size="24" fill="#333" transform="rotate(5,210,100)" text-anchor="middle">↺</text>
  <text x="265" y="115" font-family="Arial Black" font-size="24" fill="white" transform="rotate(15,260,105)" text-anchor="middle">★</text>
  <!-- Title -->
  <text x="200" y="195" font-family="Arial Black" font-size="22" fill="white" text-anchor="middle" letter-spacing="3">UNO CLÁSSICO</text>
</svg>
